<?xml version="1.0" encoding="UTF-8" standalone="no"?>
<!-- Designer: Jonas Schnelli
  	 License: MIT
-->

<svg
   xmlns:osb="http://www.openswatchbook.org/uri/2009/osb"
   xmlns:dc="http://purl.org/dc/elements/1.1/"
   xmlns:cc="http://creativecommons.org/ns#"
   xmlns:rdf="http://www.w3.org/1999/02/22-rdf-syntax-ns#"
   xmlns:svg="http://www.w3.org/2000/svg"
   xmlns="http://www.w3.org/2000/svg"
   xmlns:xlink="http://www.w3.org/1999/xlink"
   xmlns:sodipodi="http://sodipodi.sourceforge.net/DTD/sodipodi-0.dtd"
   xmlns:inkscape="http://www.inkscape.org/namespaces/inkscape"
   version="1.1"
   id="svg2"
   sodipodi:docname="bitcoincash.svg"
   inkscape:version="0.92.2 2405546, 2018-03-11"
   x="0px"
   y="0px"
   width="1024px"
   height="1024px"
   viewBox="-34 -34 580 580"
   enable-background="new 0 0 1024 1024"
   xml:space="preserve"
   inkscape:export-filename="/home/zander/work/bitcoincash512.png"
   inkscape:export-xdpi="45.330002"
   inkscape:export-ydpi="45.330002"><metadata
   id="metadata41"><rdf:RDF><cc:Work
       rdf:about=""><dc:format>image/svg+xml</dc:format><dc:type
         rdf:resource="http://purl.org/dc/dcmitype/StillImage" /></cc:Work></rdf:RDF></metadata><defs
   id="defs39"><linearGradient
   id="linearGradient2877"
   osb:paint="solid"><stop
     style="stop-color:#000000;stop-opacity:1;"
     offset="0"
     id="stop2875" /></linearGradient><linearGradient
   inkscape:collect="always"
   id="linearGradient1377"><stop
     style="stop-color:#000000;stop-opacity:1;"
     offset="0"
     id="stop1373" /><stop
     style="stop-color:#000000;stop-opacity:0;"
     offset="1"
     id="stop1375" /></linearGradient><linearGradient
   id="linearGradient892"
   osb:paint="solid"><stop
     style="stop-color:#000000;stop-opacity:1;"
     offset="0"
     id="stop890" /></linearGradient>
		
		
	
		<radialGradient
   gradientUnits="userSpaceOnUse"
   r="34.3969"
   cy="196.44119"
   cx="277.49051"
   id="innerBtop">
			<stop
   id="stop13"
   style="stop-color:#F9AA4B"
   offset="0" />
			<stop
   id="stop15"
   style="stop-color:#F7931A"
   offset="1" />
		</radialGradient>
		
		
		<radialGradient
   gradientUnits="userSpaceOnUse"
   r="39.8381"
   cy="284.56711"
   cx="261.91531"
   id="innerBbottom"
   xlink:href="#coinShape">
			<stop
   id="stop20"
   style="stop-color:#F9AA4B"
   offset="0" />
			<stop
   id="stop22"
   style="stop-color:#F7931A"
   offset="1" />
		</radialGradient>
		
				
		<radialGradient
   gradientUnits="userSpaceOnUse"
   r="255.98779"
   cy="256.00269"
   cx="256.02759"
   id="coinShape"
   fx="256.02759"
   fy="256.00269"
   fr="0"
   spreadMethod="pad">
			<stop
   id="stop27"
   style="stop-color:#F9AA4B"
   offset="0" />
			<stop
   id="stop29"
   style="stop-color:#F7931A"
   offset="1" />
		</radialGradient>
		
	<radialGradient
   gradientUnits="userSpaceOnUse"
   r="34.3969"
   cy="196.44119"
   cx="277.49051"
   id="innerBtop-8"><stop
     id="stop13-9"
     style="stop-color:#F9AA4B"
     offset="0" /><stop
     id="stop15-8"
     style="stop-color:#F7931A"
     offset="1" /></radialGradient><radialGradient
   gradientUnits="userSpaceOnUse"
   r="34.3969"
   cy="196.44119"
   cx="277.49051"
   id="radialGradient923"><stop
     id="stop919"
     style="stop-color:#F9AA4B"
     offset="0" /><stop
     id="stop921"
     style="stop-color:#F7931A"
     offset="1" /></radialGradient><radialGradient
   gradientUnits="userSpaceOnUse"
   r="34.3969"
   cy="196.44119"
   cx="277.49051"
   id="innerBtop-8-0"><stop
     id="stop13-9-6"
     style="stop-color:#F9AA4B"
     offset="0" /><stop
     id="stop15-8-9"
     style="stop-color:#F7931A"
     offset="1" /></radialGradient><radialGradient
   gradientUnits="userSpaceOnUse"
   r="34.3969"
   cy="196.44119"
   cx="277.49051"
   id="radialGradient970"><stop
     id="stop966"
     style="stop-color:#F9AA4B"
     offset="0" /><stop
     id="stop968"
     style="stop-color:#F7931A"
     offset="1" /></radialGradient><radialGradient
   gradientUnits="userSpaceOnUse"
   r="34.3969"
   cy="196.44119"
   cx="277.49051"
   id="innerBtop-2"><stop
     id="stop13-1"
     style="stop-color:#29d919;stop-opacity:1"
     offset="0" /><stop
     id="stop15-7"
     style="stop-color:#0ac420;stop-opacity:1"
     offset="1" /></radialGradient><radialGradient
   gradientUnits="userSpaceOnUse"
   r="34.3969"
   cy="196.44119"
   cx="277.49051"
   id="radialGradient1071"><stop
     id="stop1067"
     style="stop-color:#F9AA4B"
     offset="0" /><stop
     id="stop1069"
     style="stop-color:#F7931A"
     offset="1" /></radialGradient><radialGradient
   gradientUnits="userSpaceOnUse"
   r="255.98779"
   cy="256.00269"
   cx="256.02759"
   id="coinShape-7"
   fx="256.02759"
   fy="256.00269"
   fr="0"
   spreadMethod="pad"><stop
     id="stop27-9"
     style="stop-color:#29f717;stop-opacity:1"
     offset="0" /><stop
     id="stop29-7"
     style="stop-color:#09c520;stop-opacity:1"
     offset="1" /></radialGradient><filter
   id="dropShadowAlpha-6"><feColorMatrix
     result="matrixOut"
     in="SourceAlpha"
     type="saturate"
     values="0.1"
     id="feColorMatrix2-2" /><feGaussianBlur
     in="matrixOut"
     result="blur-out"
     stdDeviation="6"
     id="feGaussianBlur4-7" /><feColorMatrix
     in="blur-out"
     result="color-out"
     type="matrix"
     values="0 0 0 0   0                 0 0 0 0   0                  0 0 0 0   0                  0 0 0 0.35 0"
     id="feColorMatrix6-1" /><feBlend
     in="SourceGraphic"
     in2="color-out"
     mode="normal"
     id="feBlend8-5" /></filter><radialGradient
   gradientUnits="userSpaceOnUse"
   r="39.8381"
   cy="284.56711"
   cx="261.91531"
   id="innerBbottom-8"
   fx="261.91531"
   fy="284.56711"
   fr="0"
   spreadMethod="pad"><stop
     id="stop20-8"
     style="stop-color:#29d919;stop-opacity:1"
     offset="0" /><stop
     id="stop22-4"
     style="stop-color:#0ac41d;stop-opacity:1"
     offset="1" /></radialGradient><radialGradient
   gradientUnits="userSpaceOnUse"
   r="255.98779"
   cy="256.00269"
   cx="256.02759"
   id="radialGradient1088"
   fx="256.02759"
   fy="256.00269"
   fr="0"
   spreadMethod="pad"><stop
     id="stop1084"
     style="stop-color:#F9AA4B"
     offset="0" /><stop
     id="stop1086"
     style="stop-color:#F7931A"
     offset="1" /></radialGradient><filter
   id="filter1098"><feColorMatrix
     result="matrixOut"
     in="SourceAlpha"
     type="saturate"
     values="0.1"
     id="feColorMatrix1090" /><feGaussianBlur
     in="matrixOut"
     result="blur-out"
     stdDeviation="6"
     id="feGaussianBlur1092" /><feColorMatrix
     in="blur-out"
     result="color-out"
     type="matrix"
     values="0 0 0 0   0                 0 0 0 0   0                  0 0 0 0   0                  0 0 0 0.35 0"
     id="feColorMatrix1094" /><feBlend
     in="SourceGraphic"
     in2="color-out"
     mode="normal"
     id="feBlend1096" /></filter><radialGradient
   gradientUnits="userSpaceOnUse"
   r="34.3969"
   cy="196.44119"
   cx="277.49051"
   id="radialGradient1104"><stop
     id="stop1100"
     style="stop-color:#F9AA4B"
     offset="0" /><stop
     id="stop1102"
     style="stop-color:#F7931A"
     offset="1" /></radialGradient><filter
   id="filter1114"><feColorMatrix
     result="matrixOut"
     in="SourceAlpha"
     type="saturate"
     values="0.1"
     id="feColorMatrix1106" /><feGaussianBlur
     in="matrixOut"
     result="blur-out"
     stdDeviation="6"
     id="feGaussianBlur1108" /><feColorMatrix
     in="blur-out"
     result="color-out"
     type="matrix"
     values="0 0 0 0   0                 0 0 0 0   0                  0 0 0 0   0                  0 0 0 0.35 0"
     id="feColorMatrix1110" /><feBlend
     in="SourceGraphic"
     in2="color-out"
     mode="normal"
     id="feBlend1112" /></filter><radialGradient
   r="34.3969"
   cy="196.44119"
   cx="277.49051"
   gradientUnits="userSpaceOnUse"
   id="radialGradient1125"
   xlink:href="#innerBtop-2"
   inkscape:collect="always" /><radialGradient
   spreadMethod="pad"
   fr="0"
   r="255.98779"
   fy="256.00269"
   fx="256.02759"
   cy="256.00269"
   cx="256.02759"
   gradientUnits="userSpaceOnUse"
   id="radialGradient1127"
   xlink:href="#coinShape-7"
   inkscape:collect="always"
   gradientTransform="matrix(1.7116771,-0.43268064,0.43268064,1.7116771,-36.955892,184.56638)" /><radialGradient
   gradientUnits="userSpaceOnUse"
   r="34.3969"
   cy="196.44119"
   cx="277.49051"
   id="innerBtop-8-0-6"><stop
     id="stop13-9-6-5"
     style="stop-color:#F9AA4B"
     offset="0" /><stop
     id="stop15-8-9-6"
     style="stop-color:#F7931A"
     offset="1" /></radialGradient><radialGradient
   gradientUnits="userSpaceOnUse"
   r="34.3969"
   cy="196.44119"
   cx="277.49051"
   id="radialGradient1280"><stop
     id="stop1276"
     style="stop-color:#F9AA4B"
     offset="0" /><stop
     id="stop1278"
     style="stop-color:#F7931A"
     offset="1" /></radialGradient><radialGradient
   gradientUnits="userSpaceOnUse"
   r="34.3969"
   cy="196.44119"
   cx="277.49051"
   id="innerBtop-8-0-6-8"><stop
     id="stop13-9-6-5-4"
     style="stop-color:#F9AA4B"
     offset="0" /><stop
     id="stop15-8-9-6-8"
     style="stop-color:#F7931A"
     offset="1" /></radialGradient><radialGradient
   gradientUnits="userSpaceOnUse"
   r="34.3969"
   cy="196.44119"
   cx="277.49051"
   id="radialGradient1326"><stop
     id="stop1322"
     style="stop-color:#F9AA4B"
     offset="0" /><stop
     id="stop1324"
     style="stop-color:#F7931A"
     offset="1" /></radialGradient><linearGradient
   inkscape:collect="always"
   xlink:href="#linearGradient1377"
   id="linearGradient1379"
   x1="465.48522"
   y1="537.96452"
   x2="575.49585"
   y2="537.96452"
   gradientUnits="userSpaceOnUse" /><radialGradient
   gradientUnits="userSpaceOnUse"
   r="255.98779"
   cy="256.00269"
   cx="256.02759"
   id="coinShape-7-2"
   fx="256.02759"
   fy="256.00269"
   fr="0"
   spreadMethod="pad"><stop
     id="stop27-9-1"
     style="stop-color:#F9AA4B"
     offset="0" /><stop
     id="stop29-7-6"
     style="stop-color:#F7931A"
     offset="1" /></radialGradient><radialGradient
   inkscape:collect="always"
   xlink:href="#coinShape-7-2"
   id="radialGradient3201"
   cx="339.27106"
   cy="621.03906"
   fx="339.27106"
   fy="621.03906"
   r="58.902443"
   gradientTransform="matrix(1,0,0,1.2051784,0,-127.42377)"
   gradientUnits="userSpaceOnUse" /><radialGradient
   gradientUnits="userSpaceOnUse"
   r="255.98779"
   cy="256.00269"
   cx="256.02759"
   id="radialGradient3207"
   fx="256.02759"
   fy="256.00269"
   fr="0"
   spreadMethod="pad"><stop
     id="stop3203"
     style="stop-color:#F9AA4B"
     offset="0" /><stop
     id="stop3205"
     style="stop-color:#F7931A"
     offset="1" /></radialGradient><radialGradient
   gradientUnits="userSpaceOnUse"
   r="255.98779"
   cy="256.00269"
   cx="256.02759"
   id="radialGradient3214"
   fx="256.02759"
   fy="256.00269"
   fr="0"
   spreadMethod="pad"><stop
     id="stop3210"
     style="stop-color:#F9AA4B"
     offset="0" /><stop
     id="stop3212"
     style="stop-color:#F7931A"
     offset="1" /></radialGradient><filter
   id="dropShadowAlpha-6-0"><feColorMatrix
     result="matrixOut"
     in="SourceAlpha"
     type="saturate"
     values="0.1"
     id="feColorMatrix2-2-2" /><feGaussianBlur
     in="matrixOut"
     result="blur-out"
     stdDeviation="6"
     id="feGaussianBlur4-7-2" /><feColorMatrix
     in="blur-out"
     result="color-out"
     type="matrix"
     values="0 0 0 0   0                 0 0 0 0   0                  0 0 0 0   0                  0 0 0 0.35 0"
     id="feColorMatrix6-1-9" /><feBlend
     in="SourceGraphic"
     in2="color-out"
     mode="normal"
     id="feBlend8-5-7" /></filter><radialGradient
   gradientUnits="userSpaceOnUse"
   r="39.8381"
   cy="284.56711"
   cx="261.91531"
   id="innerBbottom-8-4"
   xlink:href="#coinShape-7-2"><stop
     id="stop20-8-3"
     style="stop-color:#F9AA4B"
     offset="0" /><stop
     id="stop22-4-5"
     style="stop-color:#F7931A"
     offset="1" /></radialGradient><radialGradient
   gradientUnits="userSpaceOnUse"
   r="255.98779"
   cy="256.00269"
   cx="256.02759"
   id="radialGradient3228"
   fx="256.02759"
   fy="256.00269"
   fr="0"
   spreadMethod="pad"><stop
     id="stop3224"
     style="stop-color:#F9AA4B"
     offset="0" /><stop
     id="stop3226"
     style="stop-color:#F7931A"
     offset="1" /></radialGradient><filter
   id="filter3238"><feColorMatrix
     result="matrixOut"
     in="SourceAlpha"
     type="saturate"
     values="0.1"
     id="feColorMatrix3230" /><feGaussianBlur
     in="matrixOut"
     result="blur-out"
     stdDeviation="6"
     id="feGaussianBlur3232" /><feColorMatrix
     in="blur-out"
     result="color-out"
     type="matrix"
     values="0 0 0 0   0                 0 0 0 0   0                  0 0 0 0   0                  0 0 0 0.35 0"
     id="feColorMatrix3234" /><feBlend
     in="SourceGraphic"
     in2="color-out"
     mode="normal"
     id="feBlend3236" /></filter><radialGradient
   gradientUnits="userSpaceOnUse"
   r="34.3969"
   cy="196.44119"
   cx="277.49051"
   id="innerBtop-2-1"><stop
     id="stop13-1-4"
     style="stop-color:#F9AA4B"
     offset="0" /><stop
     id="stop15-7-0"
     style="stop-color:#F7931A"
     offset="1" /></radialGradient><filter
   id="filter3252"><feColorMatrix
     result="matrixOut"
     in="SourceAlpha"
     type="saturate"
     values="0.1"
     id="feColorMatrix3244" /><feGaussianBlur
     in="matrixOut"
     result="blur-out"
     stdDeviation="6"
     id="feGaussianBlur3246" /><feColorMatrix
     in="blur-out"
     result="color-out"
     type="matrix"
     values="0 0 0 0   0                 0 0 0 0   0                  0 0 0 0   0                  0 0 0 0.35 0"
     id="feColorMatrix3248" /><feBlend
     in="SourceGraphic"
     in2="color-out"
     mode="normal"
     id="feBlend3250" /></filter></defs><sodipodi:namedview
   pagecolor="#ffffff"
   bordercolor="#666666"
   borderopacity="1"
   objecttolerance="10"
   gridtolerance="10"
   guidetolerance="10"
   inkscape:pageopacity="0"
   inkscape:pageshadow="2"
   inkscape:window-width="1920"
   inkscape:window-height="1171"
   id="namedview37"
   showgrid="false"
   showguides="true"
   inkscape:guide-bbox="true"
   inkscape:zoom="0.65186406"
   inkscape:cx="372.69751"
   inkscape:cy="410.69944"
   inkscape:window-x="0"
   inkscape:window-y="344"
   inkscape:window-maximized="1"
   inkscape:current-layer="layer2" />

	<!-- nice shadow with alpha 0.35 -->
	<filter
   id="dropShadowAlpha">
		<feColorMatrix
   result="matrixOut"
   in="SourceAlpha"
   type="saturate"
   values="0.1"
   id="feColorMatrix2" />
		<feGaussianBlur
   in="matrixOut"
   result="blur-out"
   stdDeviation="6"
   id="feGaussianBlur4" />
		<feColorMatrix
   in="blur-out"
   result="color-out"
   type="matrix"
   values="0 0 0 0   0                 0 0 0 0   0                  0 0 0 0   0                  0 0 0 0.35 0"
   id="feColorMatrix6" />
		<feBlend
   in="SourceGraphic"
   in2="color-out"
   mode="normal"
   id="feBlend8" />
	</filter>
	
	<g
   inkscape:groupmode="layer"
   id="layer2"
   inkscape:label="Layer 2"
   style="display:inline;opacity:1"><circle
   style="fill:#ffffff;fill-opacity:1;stroke-width:2.46422315"
   id="circle11"
   r="246.42232"
   cy="306.61002"
   cx="182.47797"
   transform="rotate(-14.186149)" /><path
   inkscape:connector-curvature="0"
   style="fill:url(#radialGradient1125);filter:url(#dropShadowAlpha-6)"
   id="path18"
   d="m 254.647,174.6 -13.983,56.08 c 15.855,3.951 64.735,20.071 72.656,-11.656 8.248,-33.096 -42.817,-40.472 -58.673,-44.424 z"
   transform="rotate(-14.186149,255.97598,255.99771)" /><path
   inkscape:connector-curvature="0"
   style="fill:url(#innerBbottom-8);fill-opacity:1;filter:url(#dropShadowAlpha-6)"
   id="path25"
   d="m 233.608,258.984 -15.425,61.832 c 19.04,4.729 77.769,23.584 86.448,-11.296 9.072,-36.376 -51.984,-45.784 -71.023,-50.536 z"
   transform="rotate(-14.186149,255.97598,255.99771)" /><path
   style="fill:url(#radialGradient1127);fill-opacity:1;stroke-width:1.76551723;filter:url(#dropShadowAlpha-6)"
   d="M 510.44922,60.134766 C 260.94983,60.938271 59.308051,263.91563 60.15625,513.47656 60.939291,763.01026 263.90691,964.66963 513.37891,963.87305 762.94979,963.06422 964.593,760.09973 963.78125,510.56055 962.9639,261.00639 760.00338,59.317415 510.44922,60.134766 Z m 0.39258,22.923828 c 236.12746,0 427.79882,191.669416 427.79882,427.796876 10e-6,236.12746 -191.67136,427.79883 -427.79882,427.79883 -236.12746,0 -427.796878,-191.67137 -427.796878,-427.79883 0,-236.12746 191.669418,-427.796876 427.796878,-427.796876 z m 0,23.503906 c -223.42443,0 -404.29297,180.86855 -404.29297,404.29297 0,223.42442 180.86854,404.29297 404.29297,404.29297 223.42442,0 404.29687,-180.86855 404.29687,-404.29297 0,-223.42442 -180.87245,-404.29297 -404.29687,-404.29297 z m 53.86914,124.0293 0.27539,83.96289 c 65.98811,5.56355 118.30785,25.68532 124.32226,86.19726 4.47666,44.27811 -13.96332,70.92304 -43.54492,86.10743 36.24715,8.57975 62.4729,26.72722 71.19531,62.11132 -32.18574,2.4625 -58.80677,13.3355 -78.95898,32.65235 l -0.002,0.002 -0.002,0.002 c -23.11959,22.063 -34.67382,52.31202 -34.67382,89.6875 0,8.64669 0.62948,16.91047 1.87304,24.78711 -12.26235,1.84769 -25.26838,3.1193 -38.95508,3.94922 l 0.25977,84.76563 -51.10742,0.17187 -0.25,-83.63281 c -13.24202,0.0531 -26.8079,-0.0136 -40.82617,-0.25781 l 0.27343,84.02148 -51.05078,0.1582 -0.29883,-84.91992 c -11.95721,-0.0368 -24.13478,-0.20674 -36.50976,-0.18164 l -66.50781,0.2207 9.95507,-61.0664 c 0,0 37.80621,0.46588 37.15039,-0.11133 14.46322,-0.0704 18.25918,-10.47239 19.14649,-16.99023 l -0.42383,-133.99414 -0.004,-0.36329 -0.31446,-95.65039 c -1.99342,-10.36413 -8.76985,-22.35985 -29.4707,-22.29882 0.62335,-0.69662 -37.11328,0.14648 -37.11328,0.14648 l -0.19141,-54.58398 70.48828,-0.20313 0.008,0.25977 c 10.59533,-0.0414 21.46158,-0.2826 32.52735,-0.54493 l -0.25586,-83.9375 51.07812,-0.16406 0.25977,82.28906 c 13.64384,-0.31488 27.37691,-0.6262 40.8125,-0.66992 l -0.26953,-81.75 z M 730.8457,552.35938 c 12.74447,0 24.98018,1.42844 36.70508,4.2832 11.72491,2.85476 22.98957,7.08578 33.79688,12.69336 v 47.25586 c -10.90926,-7.44276 -21.66418,-12.89679 -32.26758,-16.36328 -10.60339,-3.4665 -21.76728,-5.20118 -33.49219,-5.20118 -5.89967,0 -11.43326,0.55141 -16.625,1.61328 -6.1e-4,0.005 -10e-4,0.0104 -0.002,0.0156 -6.1759,1.36126 -12.64119,3.6555 -17.78125,6.41992 -7.95646,4.47029 -14.66251,10.68471 -19.65821,17.58594 -5.58688,7.99113 -9.21505,17.05465 -11.27734,25.92383 -2.12141,8.51048 -2.22571,16.54281 -2.20312,24.55468 0,1.95226 0.0576,3.85725 0.14062,5.74024 -0.0131,0.007 -0.026,0.0143 -0.0391,0.0215 0.95571,20.70072 6.91055,37.20893 17.89453,49.4961 12.03078,13.45815 28.54789,20.1875 49.55078,20.1875 11.72491,0 22.8888,-1.73469 33.49219,-5.20117 10.6034,-3.4665 21.35832,-8.92051 32.26758,-16.36329 v 47.25586 c -10.80731,5.60757 -22.07197,9.84056 -33.79688,12.69532 -11.7249,2.85476 -23.96061,4.28125 -36.70508,4.28125 -38.02949,0 -68.15645,-10.60376 -90.38281,-31.81055 -16.9528,-16.25291 -27.43276,-36.90025 -31.45508,-61.93164 -0.0174,0.003 -0.0353,0.005 -0.0527,0.008 -2.80529,-16.60005 -2.44671,-35.57449 -0.0332,-50.41797 3.34131,-19.31181 11.71094,-37.9924 23.4414,-52.30859 13.70482,-15.17302 29.09771,-25.8099 47.08008,-32.2832 8.05906,-2.81368 16.27642,-4.7597 24.07812,-5.99219 9.22407,-1.50059 18.74574,-2.14705 27.32422,-2.1582 z m -12.56836,49.37109 c -5.20736,34.69163 -21.18735,57.48979 -45.38086,72.39453 -0.02,-0.93159 -0.0449,-1.85782 -0.0449,-2.80859 0,-22.9193 5.75098,-40.2612 16.94141,-52.7793 7.59653,-8.49779 16.97328,-14.08658 28.48437,-16.80664 z"
   id="path32"
   transform="matrix(0.56640625,0,0,0.56640625,-34,-34)"
   inkscape:connector-curvature="0"
   sodipodi:nodetypes="cccccssssssssssccccccccsccccccccccccccccccccccccccccccscccsccccccccsscccssccccccccccscccc"
   inkscape:export-xdpi="24"
   inkscape:export-ydpi="24" />
</g>
</svg>